<svg xmlns="http://www.w3.org/2000/svg" viewBox="0 0 48 48" fill="none">
  <!-- Bookshelf frame -->
  <rect x="4" y="6" width="40" height="36" rx="3" fill="#0F172A"/>
  
  <!-- Shelf boards -->
  <rect x="4" y="20" width="40" height="3" fill="#7C3AED"/>
  <rect x="4" y="38" width="40" height="4" fill="#7C3AED"/>
  
  <!-- Top shelf books -->
  <rect x="7" y="9" width="7" height="11" rx="1" fill="#8B5CF6"/>
  <rect x="15" y="10" width="6" height="10" rx="1" fill="#FFFFFF"/>
  <rect x="22" y="8" width="8" height="12" rx="1" fill="#14B8A6"/>
  <rect x="31" y="11" width="5" height="9" rx="1" fill="#FFFFFF"/>
  <rect x="37" y="9" width="6" height="11" rx="1" fill="#8B5CF6"/>
  
  <!-- Bottom shelf books -->
  <rect x="7" y="24" width="8" height="14" rx="1" fill="#14B8A6"/>
  <rect x="16" y="26" width="6" height="12" rx="1" fill="#8B5CF6"/>
  <rect x="23" y="24" width="7" height="14" rx="1" fill="#FFFFFF"/>
  <rect x="31" y="25" width="5" height="13" rx="1" fill="#14B8A6"/>
  <rect x="37" y="24" width="6" height="14" rx="1" fill="#FFFFFF"/>
  
  <!-- Book spine highlights -->
  <rect x="9" y="11" width="1" height="7" fill="#7C3AED"/>
  <rect x="25" y="10" width="1" height="8" fill="#0D9488"/>
  <rect x="10" y="26" width="1" height="10" fill="#0D9488"/>
  <rect x="26" y="26" width="1" height="10" fill="#E2E8F0"/>
</svg>